<?xml version="1.0" standalone="no"?>
<!DOCTYPE svg PUBLIC "-//W3C//DTD SVG 20010904//EN"
 "http://www.w3.org/TR/2001/REC-SVG-20010904/DTD/svg10.dtd">
<svg version="1.0" xmlns="http://www.w3.org/2000/svg"
 width="700.000000pt" height="700.000000pt" viewBox="0 0 700.000000 700.000000"
 preserveAspectRatio="xMidYMid meet">
<metadata>
Created by potrace 1.14, written by Peter Selinger 2001-2017
</metadata>
<g transform="translate(0.000000,700.000000) scale(0.100000,-0.100000)"
fill="#000000" stroke="none">
<path d="M3253 6990 c-712 -53 -1384 -317 -1948 -766 -141 -113 -416 -388
-529 -529 -723 -908 -953 -2074 -629 -3190 121 -417 343 -841 629 -1200 113
-141 388 -416 529 -529 583 -464 1250 -720 2003 -767 1446 -92 2805 744 3399
2087 266 603 355 1295 248 1930 -42 248 -109 484 -210 744 -61 155 -158 373
-214 476 l-39 71 244 244 c266 266 278 282 256 357 -7 21 -22 48 -34 59 -13
11 -166 83 -342 159 -230 100 -323 145 -334 162 -9 13 -62 157 -119 320 -56
163 -111 308 -121 322 -24 32 -89 55 -128 46 -20 -5 -110 -88 -287 -264 l-258
-257 -37 21 c-20 11 -80 44 -132 74 -374 209 -832 356 -1292 415 -149 20 -488
27 -655 15z m483 -1231 c337 -32 668 -145 921 -313 56 -37 106 -73 111 -79 6
-7 22 -68 37 -136 l28 -123 -364 -364 -363 -363 -31 20 c-57 38 -165 89 -240
114 -245 82 -548 62 -792 -55 -305 -145 -518 -418 -588 -755 -19 -95 -22 -291
-5 -385 29 -161 105 -335 200 -461 305 -406 880 -542 1328 -315 396 201 632
631 584 1064 -16 141 -43 234 -104 361 l-50 104 374 367 373 367 120 -31 120
-32 52 -78 c106 -159 230 -480 277 -716 38 -192 49 -324 43 -520 -13 -400
-118 -760 -317 -1090 -500 -831 -1449 -1253 -2395 -1065 -590 118 -1119 475
-1451 981 -476 723 -497 1665 -54 2404 281 467 712 816 1224 990 167 57 340
93 546 113 81 8 314 6 416 -4z"/>
</g>
</svg>
