<?xml version="1.0" encoding="utf-8"?>
<!-- Generator: Adobe Illustrator 23.0.0, SVG Export Plug-In . SVG Version: 6.00 Build 0)  -->
<svg version="1.1" id="Layer_1" xmlns="http://www.w3.org/2000/svg" xmlns:xlink="http://www.w3.org/1999/xlink" x="0px" y="0px"
	 viewBox="0 0 2584.3 512" style="enable-background:new 0 0 2584.3 512;" xml:space="preserve">
<style type="text/css">
	.st0{fill:#FF405C;}
	.st1{fill:#C1126B;}
	.st2{fill:#FFF4F4;}
	.st3{fill:#EEE1DC;}
	.st4{fill:#00337A;}
	.st5{fill:#00AEEE;}
	.st6{fill:#002659;}
	.st7{fill:#0089FF;}
	.st8{fill:url(#SVGID_1_);}
	.st9{fill:url(#SVGID_2_);}
	.st10{fill:url(#SVGID_3_);}
	.st11{fill:url(#SVGID_4_);}
	.st12{fill:url(#SVGID_5_);}
	.st13{fill:url(#SVGID_6_);}
	.st14{fill:url(#SVGID_7_);}
	.st15{fill:url(#SVGID_8_);}
	.st16{fill:url(#SVGID_9_);}
	.st17{fill:url(#SVGID_10_);}
	.st18{fill:url(#SVGID_11_);}
</style>
<g>
	<path class="st0" d="M475.4,124.1c21,39.8,36.6,83.6,36.6,131.9c0,141.4-114.6,256-256,256S0,397.4,0,256S114.6,0,256,0
		c49.1,0,97,15,136,39C392,39,452.4,80.5,475.4,124.1L475.4,124.1z"/>
	<path class="st1" d="M512,256c0-48.2-15.6-92.1-36.6-131.9C452.4,80.5,392,39,392,39C353,15,305.1,0,256,0v512
		C397.4,512,512,397.4,512,256z"/>
	<path class="st2" d="M404.7,182.2c10.9,23.3,17.3,46.3,17.3,73.8c0,91.6-74.3,165.9-165.9,165.9s-166-74.3-166-165.9
		S164.4,90.1,256,90.1c28.9,0,53.9,6.2,77.6,19.2C333.6,109.3,384,138.1,404.7,182.2L404.7,182.2z"/>
	<path class="st3" d="M421.9,256c0-27.5-6.3-50.5-17.3-73.8c-20.7-44.1-71.1-72.9-71.1-72.9c-23.7-13-48.6-19.2-77.6-19.2v331.8
		C347.6,421.9,421.9,347.6,421.9,256z"/>
	<circle class="st0" cx="256" cy="256" r="78.1"/>
	<path class="st1" d="M334.1,256c0-43.1-35-78.1-78.1-78.1v156.2C299.1,334.1,334.1,299.1,334.1,256L334.1,256z"/>
	<g>
		<path class="st4" d="M252.8,276.8c-4.1,0-8.1-1.6-11.2-4.7c-6.1-6.2-6.1-16.2,0.1-22.3L436.5,56.3c6.2-6.1,16.2-6.1,22.3,0.1
			c6.1,6.2,6.1,16.2-0.1,22.3L264,272.2C260.9,275.3,256.9,276.8,252.8,276.8L252.8,276.8z"/>
	</g>
	<path class="st5" d="M458.4,48.6L444,7.1c-2.4-6.9-11.1-8.9-16.3-3.7L346.1,85c-2.4,2.4-3.4,5.8-2.7,9l12,55.1
		c0.8,3.6,3.5,6.5,7.1,7.4l56.7,15.2c3.4,0.9,7-0.1,9.5-2.5l80.4-80.4c4.9-4.9,3.3-13.2-3-16l-42.3-18.4
		C461.2,53.3,459.3,51.2,458.4,48.6L458.4,48.6z"/>
	<path class="st6" d="M458.8,56.4c-0.1-0.1-0.3-0.2-0.4-0.3L242,272.5c3,2.9,6.9,4.3,10.8,4.3c4,0,8-1.5,11.1-4.6L458.7,78.7
		C464.9,72.6,464.9,62.6,458.8,56.4L458.8,56.4z"/>
	<path class="st7" d="M506.1,72.8l-42.3-18.4c-0.8-0.4-1.6-0.8-2.3-1.4L359.4,155.1c0.9,0.7,2,1.2,3.1,1.5l56.7,15.2
		c3.4,0.9,7-0.1,9.5-2.5l80.4-80.4C514,83.9,512.4,75.6,506.1,72.8z"/>
</g>
<g>
	<g>
		<linearGradient id="SVGID_1_" gradientUnits="userSpaceOnUse" x1="626.0781" y1="271.4941" x2="2529.0547" y2="271.4941">
			<stop  offset="0" style="stop-color:#FE9201"/>
			<stop  offset="1" style="stop-color:#FD0144"/>
		</linearGradient>
		<path class="st8" d="M866.1,278.3c-5.2,28.3-15.7,49.8-31.5,64.8c-15.9,14.9-36.4,22.4-61.4,22.4c-12.6,0-24.4-1.9-35.3-5.8
			c-11-3.9-20.9-9.6-29.9-17.2c-13.9-12-24.5-26.7-31.7-44.2c-7.2-17.4-10.8-36.8-10.8-58.2c0-16.6,2.4-32.2,7.1-46.7
			s11.7-27.7,21-39.5c10.2-12.9,22-22.5,35.4-28.8c13.4-6.3,28.8-9.4,46.1-9.4c10.6,0,20.4,1.5,29.4,4.5c9,3,17.4,7.6,25.1,13.9
			l16.3-17.1h12.3l4.1,96l-14.9,1.3c-6.3-27-15.2-47.3-26.7-61.1c-11.5-13.8-25.4-20.7-41.7-20.7c-19.2,0-33.1,8.3-41.9,25
			c-8.8,16.7-13.2,43.5-13.2,80.6c0,37.9,4.6,65,13.7,81.1c9.2,16.2,24.3,24.3,45.5,24.3c16.4,0,30.3-6.1,41.8-18.2
			c11.4-12.1,19.9-29.8,25.3-52.9L866.1,278.3z"/>
		<linearGradient id="SVGID_2_" gradientUnits="userSpaceOnUse" x1="626.0781" y1="271.4941" x2="2529.0547" y2="271.4941">
			<stop  offset="0" style="stop-color:#FE9201"/>
			<stop  offset="1" style="stop-color:#FD0144"/>
		</linearGradient>
		<path class="st9" d="M911.2,147.6c0-5.2-1-8.6-2.9-10.3c-2-1.7-6.2-2.6-12.7-2.6c-0.8,0-2.2,0.1-4.3,0.2c-2.1,0.1-3.8,0.2-5,0.2
			v-16.1l70.8-4v215.3c0,4.6,0.7,7.8,2.1,9.4c1.4,1.7,4,2.6,7.9,2.8l11.7,0.3v16.4h-90.5v-16.4l12.9-0.3c4-0.3,6.7-1.3,8-3
			c1.3-1.7,2-4.8,2-9.3V147.6z"/>
		<linearGradient id="SVGID_3_" gradientUnits="userSpaceOnUse" x1="626.0781" y1="271.4941" x2="2529.0547" y2="271.4941">
			<stop  offset="0" style="stop-color:#FE9201"/>
			<stop  offset="1" style="stop-color:#FD0144"/>
		</linearGradient>
		<path class="st10" d="M1131.2,304.7l12.9,6.9c-4.6,17.3-12.6,30.4-24.1,39.4c-11.5,9-26.1,13.5-43.8,13.5
			c-24.3,0-43.9-7.7-58.9-23c-14.9-15.4-22.4-35.5-22.4-60.4c0-24.9,7.4-45.1,22.2-60.7c14.8-15.5,34.2-23.3,58.1-23.3
			c21.8,0,38.8,7.1,50.9,21.4c12.1,14.2,18.2,34.2,18.2,59.9v4.4h-98.4v2.3c0,19.1,3.4,33.5,10.2,43.3c6.8,9.7,17,14.6,30.4,14.6
			c9.8,0,18.5-3.2,25.9-9.6C1119.9,326.7,1126.1,317.3,1131.2,304.7z M1045.9,265.4h45.1c3.1,0,5.2-0.8,6.4-2.3
			c1.2-1.5,1.9-4.2,1.9-8.2c0-14.2-1.9-24.5-5.6-30.9c-3.8-6.4-9.7-9.7-17.8-9.7c-9.3,0-16.5,4.2-21.4,12.6
			C1049.5,235.4,1046.7,248.2,1045.9,265.4z"/>
		<linearGradient id="SVGID_4_" gradientUnits="userSpaceOnUse" x1="626.0781" y1="271.4941" x2="2529.0547" y2="271.4941">
			<stop  offset="0" style="stop-color:#FE9201"/>
			<stop  offset="1" style="stop-color:#FD0144"/>
		</linearGradient>
		<path class="st11" d="M1307.7,321.1c0,5.3,0.8,9,2.5,11.3c1.7,2.3,4.4,3.4,8.1,3.4c1.7,0,3.7-0.6,5.9-1.7c2.2-1.1,3.6-1.7,4.1-1.7
			c1.1,0,2,0.4,2.7,1.3c0.7,0.9,1,2.1,1,3.7c0,6.9-3.5,13.2-10.4,18.9c-7,5.7-15.3,8.5-25,8.5c-7.2,0-13.4-2.2-18.6-6.5
			s-8.2-10-9.2-16.8c-8,7.4-17.1,13.2-27.2,17.2c-10.2,4.1-20.6,6.1-31.4,6.1c-14,0-24.9-3.4-32.6-10.3c-7.7-6.9-11.6-16.5-11.6-29
			c0-16.6,7.7-30,23.2-40c15.5-10,40-17.6,73.5-22.6v-17.9c0-11.6-2.1-19.8-6.2-24.7c-4.1-4.8-10.9-7.3-20.5-7.3
			c-6.2,0-11.4,1.2-15.7,3.5c-4.2,2.3-6.4,5-6.4,8c0,0.8,1.3,3,3.8,6.6c2.5,3.7,3.8,7.7,3.8,12.2c0,6.2-2.2,11.3-6.5,15.1
			c-4.3,3.8-10,5.7-17,5.7c-7.1,0-12.9-2.3-17.6-6.9c-4.7-4.6-7-10.4-7-17.4c0-13.7,5.9-24.4,17.6-32c11.7-7.6,28.3-11.4,49.8-11.4
			c12,0,22.6,1.4,31.7,4.1c9.1,2.7,16.6,6.8,22.5,12.2c4.7,4.1,7.9,8.7,9.8,13.9c1.9,5.2,2.8,13.2,2.8,23.9V321.1z M1262.4,279.2
			c-17.4,3.1-29.7,7.7-37,13.9c-7.3,6.1-11,14.7-11,25.8c0,6.8,1.6,12.1,4.9,16.1c3.3,4,7.7,6,13.2,6c9.1,0,16.3-3.8,21.7-11.4
			s8.2-18,8.2-31.2V279.2z"/>
		<linearGradient id="SVGID_5_" gradientUnits="userSpaceOnUse" x1="626.0781" y1="271.4941" x2="2529.0547" y2="271.4941">
			<stop  offset="0" style="stop-color:#FE9201"/>
			<stop  offset="1" style="stop-color:#FD0144"/>
		</linearGradient>
		<path class="st12" d="M1336.4,359.2v-16.4l13.7-0.3c4-0.3,6.7-1.3,8-3c1.3-1.7,2-4.8,2-9.3v-98.8c0-5.3-1.1-8.8-3.1-10.5
			c-2.1-1.7-6.4-2.6-13-2.6c-0.9,0-2.3,0.1-4.2,0.2c-2,0.1-3.5,0.2-4.5,0.2v-16.3l65.2-3.5v45.4c5.7-14.9,12.6-26.2,20.6-33.8
			s17.1-11.4,27.2-11.4c9.3,0,16.9,3,22.8,8.9c5.9,5.9,8.8,13.5,8.8,22.7c0,9-2.2,16.2-6.5,21.7c-4.3,5.4-10,8.1-17.1,8.1
			c-6.6,0-11.9-2.4-16.1-7.2c-4.1-4.8-6.2-11-6.2-18.6c0-3,0.4-5.8,1.3-8.4s2.2-5,4-7.4c-10.9,4-19.2,12.5-24.9,25.5
			c-5.7,13-8.6,29.9-8.6,50.8v35c0,4.5,0.7,7.6,2.1,9.3c1.4,1.7,4,2.7,7.9,2.9l18.7,0.3v16.4H1336.4z"/>
		<linearGradient id="SVGID_6_" gradientUnits="userSpaceOnUse" x1="626.0781" y1="271.4941" x2="2529.0547" y2="271.4941">
			<stop  offset="0" style="stop-color:#FE9201"/>
			<stop  offset="1" style="stop-color:#FD0144"/>
		</linearGradient>
		<path class="st13" d="M1759.1,210.6c-2.7-23.1-8.2-41.2-16.7-54.4c-8.4-13.2-18.7-19.7-30.7-19.7c-5.1,0-8.6,1.1-10.4,3.4
			c-1.8,2.3-2.7,6.7-2.7,13.4v171.3c0,7.1,1,11.7,3,13.9c2,2.1,6,3.2,11.9,3.2h14.3v17.6h-111v-17.6h14.7c5.8,0,9.7-1,11.7-3.1
			c2-2.1,2.9-6.7,2.9-13.9V153.2c0-6.8-0.9-11.3-2.6-13.5c-1.8-2.2-5.2-3.3-10.2-3.3c-12,0-22.2,6.6-30.7,19.7
			c-8.4,13.2-14,31.3-16.8,54.4h-14.6l4.6-89.8h193.1l4.7,89.8H1759.1z"/>
		<linearGradient id="SVGID_7_" gradientUnits="userSpaceOnUse" x1="626.0781" y1="271.4941" x2="2529.0547" y2="271.4941">
			<stop  offset="0" style="stop-color:#FE9201"/>
			<stop  offset="1" style="stop-color:#FD0144"/>
		</linearGradient>
		<path class="st14" d="M1932.3,321.1c0,5.3,0.8,9,2.5,11.3c1.7,2.3,4.4,3.4,8.1,3.4c1.7,0,3.7-0.6,5.9-1.7c2.2-1.1,3.6-1.7,4.1-1.7
			c1.1,0,2,0.4,2.7,1.3c0.7,0.9,1,2.1,1,3.7c0,6.9-3.5,13.2-10.4,18.9c-7,5.7-15.3,8.5-25,8.5c-7.2,0-13.4-2.2-18.6-6.5
			s-8.2-10-9.2-16.8c-8,7.4-17.1,13.2-27.2,17.2c-10.2,4.1-20.6,6.1-31.4,6.1c-14,0-24.9-3.4-32.6-10.3c-7.7-6.9-11.6-16.5-11.6-29
			c0-16.6,7.7-30,23.2-40c15.5-10,40-17.6,73.5-22.6v-17.9c0-11.6-2.1-19.8-6.2-24.7c-4.1-4.8-10.9-7.3-20.5-7.3
			c-6.2,0-11.4,1.2-15.7,3.5c-4.2,2.3-6.4,5-6.4,8c0,0.8,1.3,3,3.8,6.6c2.5,3.7,3.8,7.7,3.8,12.2c0,6.2-2.2,11.3-6.5,15.1
			c-4.3,3.8-10,5.7-17,5.7c-7.1,0-12.9-2.3-17.6-6.9c-4.7-4.6-7-10.4-7-17.4c0-13.7,5.9-24.4,17.6-32c11.7-7.6,28.3-11.4,49.8-11.4
			c12,0,22.6,1.4,31.7,4.1c9.1,2.7,16.6,6.8,22.5,12.2c4.7,4.1,7.9,8.7,9.8,13.9c1.9,5.2,2.8,13.2,2.8,23.9V321.1z M1887,279.2
			c-17.4,3.1-29.7,7.7-37,13.9c-7.3,6.1-11,14.7-11,25.8c0,6.8,1.6,12.1,4.9,16.1c3.3,4,7.7,6,13.2,6c9.1,0,16.3-3.8,21.7-11.4
			s8.2-18,8.2-31.2V279.2z"/>
		<linearGradient id="SVGID_8_" gradientUnits="userSpaceOnUse" x1="626.0781" y1="271.4941" x2="2529.0547" y2="271.4941">
			<stop  offset="0" style="stop-color:#FE9201"/>
			<stop  offset="1" style="stop-color:#FD0144"/>
		</linearGradient>
		<path class="st15" d="M1961.1,359.2v-16.4l13.7-0.3c4-0.3,6.7-1.3,8-3c1.3-1.7,2-4.8,2-9.3v-98.8c0-5.3-1.1-8.8-3.1-10.5
			c-2.1-1.7-6.4-2.6-13-2.6c-0.9,0-2.3,0.1-4.2,0.2c-2,0.1-3.5,0.2-4.5,0.2v-16.3l65.2-3.5v45.4c5.7-14.9,12.6-26.2,20.6-33.8
			s17.1-11.4,27.2-11.4c9.3,0,16.9,3,22.8,8.9c5.9,5.9,8.8,13.5,8.8,22.7c0,9-2.2,16.2-6.5,21.7c-4.3,5.4-10,8.1-17.1,8.1
			c-6.6,0-11.9-2.4-16.1-7.2c-4.1-4.8-6.2-11-6.2-18.6c0-3,0.4-5.8,1.3-8.4s2.2-5,4-7.4c-10.9,4-19.2,12.5-24.9,25.5
			c-5.7,13-8.6,29.9-8.6,50.8v35c0,4.5,0.7,7.6,2.1,9.3c1.4,1.7,4,2.7,7.9,2.9l18.7,0.3v16.4H1961.1z"/>
		<linearGradient id="SVGID_9_" gradientUnits="userSpaceOnUse" x1="626.0781" y1="271.4941" x2="2529.0547" y2="271.4941">
			<stop  offset="0" style="stop-color:#FE9201"/>
			<stop  offset="1" style="stop-color:#FD0144"/>
		</linearGradient>
		<path class="st16" d="M2150.9,365.1c-9.4-2.7-16.6-6.7-21.4-12c-4.8-5.3-7.2-11.9-7.2-19.7c0-8.7,3.2-15.9,9.6-21.5
			c6.4-5.6,15.6-9.5,27.6-11.5c-11.8-3.5-20.8-9.4-27-17.6c-6.2-8.2-9.3-18.1-9.3-29.8c0-16.8,6.3-30.4,18.9-40.8
			c12.6-10.5,29-15.7,49.3-15.7c7.2,0,13.9,0.8,20.3,2.4c6.4,1.6,12.6,4,18.6,7.3l5-8.2c3.9-6.2,8.6-11,14-14.4s11.1-5.1,17-5.1
			c6.5,0,11.8,2.1,15.9,6.3c4.1,4.2,6.2,9.6,6.2,16.1c0,6.4-1.6,11.7-4.7,15.7c-3.1,4-7.2,6-12.3,6c-3.4,0-6.4-0.8-8.9-2.5
			c-2.5-1.7-4.5-4.2-6-7.7c-0.6-1.3-1-2.9-1.1-4.8c-0.3-2.7-1.3-4.1-3-4.2c-1.7,0-3.6,0.9-5.7,2.8c-2.1,1.9-3.8,4.3-5.1,7.2
			c7.2,5.6,12.5,11.6,15.9,18c3.3,6.4,5,13.9,5,22.2c0,16.8-6,29.9-18.1,39.4c-12.1,9.5-28.8,14.3-50.3,14.3c-1.8,0-4.3-0.1-7.6-0.3
			c-3.2-0.2-5.6-0.3-7-0.3c-4.5,0-8,0.9-10.5,2.8c-2.5,1.9-3.8,4.5-3.8,7.8c0,3.8,1.1,6.4,3.4,7.9c2.2,1.5,6.2,2.3,11.8,2.3h21.2
			c11.2,0,20.9,0.4,29.1,1.2c8.2,0.8,13.9,1.9,17.1,3.1c8,3.2,14.3,8.6,18.7,16.1c4.5,7.5,6.7,16.2,6.7,26.1
			c0,17.4-7.3,30.8-22,40.1c-14.6,9.3-35.6,14-63,14c-23.3,0-40.8-2.8-52.6-8.5c-11.8-5.7-17.7-14.2-17.7-25.5
			c0-7.4,2.9-13.6,8.6-18.6S2140.3,367,2150.9,365.1z M2165.4,374.3c-3.7,1.7-6.4,3.7-7.9,5.9c-1.6,2.2-2.4,5.1-2.4,8.6
			c0,7.2,2.8,12.5,8.3,16c5.5,3.4,14.1,5.2,25.7,5.2c15.8,0,27.5-1.6,35.1-4.9c7.6-3.3,11.4-8.4,11.4-15.2c0-5.5-2.1-9.4-6.2-11.8
			c-4.1-2.4-11.1-3.6-21-3.6H2165.4z M2170.4,252.2c0,13.5,1.8,23.4,5.4,29.6c3.6,6.2,9.3,9.3,17,9.3c7.8,0,13.6-3.1,17.3-9.4
			c3.7-6.3,5.6-16.1,5.6-29.6c0-13.2-1.9-23-5.6-29.3c-3.7-6.3-9.5-9.5-17.3-9.5c-7.7,0-13.4,3.2-17,9.5
			C2172.2,229.2,2170.4,238.9,2170.4,252.2z"/>
		<linearGradient id="SVGID_10_" gradientUnits="userSpaceOnUse" x1="626.0781" y1="271.4941" x2="2529.0547" y2="271.4941">
			<stop  offset="0" style="stop-color:#FE9201"/>
			<stop  offset="1" style="stop-color:#FD0144"/>
		</linearGradient>
		<path class="st17" d="M2427,304.7l12.9,6.9c-4.6,17.3-12.6,30.4-24.1,39.4c-11.5,9-26.1,13.5-43.8,13.5c-24.3,0-43.9-7.7-58.9-23
			c-14.9-15.4-22.4-35.5-22.4-60.4c0-24.9,7.4-45.1,22.2-60.7c14.8-15.5,34.2-23.3,58.1-23.3c21.8,0,38.8,7.1,50.9,21.4
			c12.1,14.2,18.2,34.2,18.2,59.9v4.4h-98.4v2.3c0,19.1,3.4,33.5,10.2,43.3c6.8,9.7,17,14.6,30.4,14.6c9.8,0,18.5-3.2,25.9-9.6
			C2415.7,326.7,2421.9,317.3,2427,304.7z M2341.7,265.4h45.1c3.1,0,5.2-0.8,6.4-2.3c1.2-1.5,1.9-4.2,1.9-8.2
			c0-14.2-1.9-24.5-5.6-30.9c-3.8-6.4-9.7-9.7-17.8-9.7c-9.3,0-16.5,4.2-21.4,12.6C2345.3,235.4,2342.5,248.2,2341.7,265.4z"/>
		<linearGradient id="SVGID_11_" gradientUnits="userSpaceOnUse" x1="626.0781" y1="271.4941" x2="2529.0547" y2="271.4941">
			<stop  offset="0" style="stop-color:#FE9201"/>
			<stop  offset="1" style="stop-color:#FD0144"/>
		</linearGradient>
		<path class="st18" d="M2568,296.8c0,0.8,0.1,1.9,0.2,3.5c0.1,1.6,0.2,2.7,0.2,3.5c0,19.3-4.6,34.4-13.7,45.2
			c-9.1,10.8-21.8,16.2-38,16.2c-14.8,0-25.3-3.9-31.5-11.8c-6.2-7.8-9.3-21.6-9.3-41.4v-90.1h-21v-17.7c14.5-1.1,25.7-7.4,33.8-19
			c8-11.6,12.4-27.9,13.2-49h20.2v66.2h39.5v19.5h-39.5v87.5c0,11.2,0.9,18.6,2.7,22.2c1.8,3.7,5,5.5,9.6,5.5c5.6,0,9.9-3.3,12.8-10
			c2.9-6.7,4.5-16.8,4.8-30.3H2568z"/>
	</g>
</g>
</svg>
