<?xml version="1.0" encoding="utf-8"?>
<!-- Generator: Adobe Illustrator 23.0.0, SVG Export Plug-In . SVG Version: 6.00 Build 0)  -->
<svg version="1.1" id="Layer_1" xmlns="http://www.w3.org/2000/svg" xmlns:xlink="http://www.w3.org/1999/xlink" x="0px" y="0px"
	 viewBox="0 0 1394 512" style="enable-background:new 0 0 1394 512;" xml:space="preserve">
<style type="text/css">
	.st0{fill:#FF405C;}
	.st1{fill:#C1126B;}
	.st2{fill:#FFF4F4;}
	.st3{fill:#EEE1DC;}
	.st4{fill:#00337A;}
	.st5{fill:#00AEEE;}
	.st6{fill:#002659;}
	.st7{fill:#0089FF;}
	.st8{enable-background:new    ;}
	.st9{fill:url(#SVGID_1_);}
	.st10{fill:url(#SVGID_2_);}
	.st11{fill:url(#SVGID_3_);}
	.st12{fill:url(#SVGID_4_);}
	.st13{fill:url(#SVGID_5_);}
	.st14{fill:url(#SVGID_6_);}
	.st15{fill:url(#SVGID_7_);}
	.st16{fill:url(#SVGID_8_);}
	.st17{fill:url(#SVGID_9_);}
	.st18{fill:url(#SVGID_10_);}
	.st19{fill:url(#SVGID_11_);}
	.st20{fill:url(#SVGID_12_);}
	.st21{fill:url(#SVGID_13_);}
	.st22{fill:url(#SVGID_14_);}
	.st23{fill:url(#SVGID_15_);}
	.st24{fill:url(#SVGID_16_);}
	.st25{fill:url(#SVGID_17_);}
	.st26{fill:url(#SVGID_18_);}
	.st27{fill:url(#SVGID_19_);}
	.st28{fill:url(#SVGID_20_);}
	.st29{fill:url(#SVGID_21_);}
	.st30{fill:url(#SVGID_22_);}
	.st31{fill:url(#SVGID_23_);}
	.st32{fill:url(#SVGID_24_);}
	.st33{fill:url(#SVGID_25_);}
	.st34{fill:url(#SVGID_26_);}
</style>
<g>
	<path class="st0" d="M475.4,124.1c21,39.8,36.6,83.6,36.6,131.9c0,141.4-114.6,256-256,256S0,397.4,0,256S114.6,0,256,0
		c49.1,0,97,15,136,39C392,39,452.4,80.5,475.4,124.1L475.4,124.1z"/>
	<path class="st1" d="M512,256c0-48.2-15.6-92.1-36.6-131.9C452.4,80.5,392,39,392,39C353,15,305.1,0,256,0v512
		C397.4,512,512,397.4,512,256z"/>
	<path class="st2" d="M404.7,182.2c10.9,23.3,17.3,46.3,17.3,73.8c0,91.6-74.3,165.9-165.9,165.9s-166-74.3-166-165.9
		S164.4,90.1,256,90.1c28.9,0,53.9,6.2,77.6,19.2C333.6,109.3,384,138.1,404.7,182.2L404.7,182.2z"/>
	<path class="st3" d="M421.9,256c0-27.5-6.3-50.5-17.3-73.8c-20.7-44.1-71.1-72.9-71.1-72.9c-23.7-13-48.6-19.2-77.6-19.2v331.8
		C347.6,421.9,421.9,347.6,421.9,256z"/>
	<circle class="st0" cx="256" cy="256" r="78.1"/>
	<path class="st1" d="M334.1,256c0-43.1-35-78.1-78.1-78.1v156.2C299.1,334.1,334.1,299.1,334.1,256L334.1,256z"/>
	<g>
		<path class="st4" d="M252.8,276.8c-4.1,0-8.1-1.6-11.2-4.7c-6.1-6.2-6.1-16.2,0.1-22.3L436.5,56.3c6.2-6.1,16.2-6.1,22.3,0.1
			c6.1,6.2,6.1,16.2-0.1,22.3L264,272.2C260.9,275.3,256.9,276.8,252.8,276.8L252.8,276.8z"/>
	</g>
	<path class="st5" d="M458.4,48.6L444,7.1c-2.4-6.9-11.1-8.9-16.3-3.7L346.1,85c-2.4,2.4-3.4,5.8-2.7,9l12,55.1
		c0.8,3.6,3.5,6.5,7.1,7.4l56.7,15.2c3.4,0.9,7-0.1,9.5-2.5l80.4-80.4c4.9-4.9,3.3-13.2-3-16l-42.3-18.4
		C461.2,53.3,459.3,51.2,458.4,48.6L458.4,48.6z"/>
	<path class="st6" d="M458.8,56.4c-0.1-0.1-0.3-0.2-0.4-0.3L242,272.5c3,2.9,6.9,4.3,10.8,4.3c4,0,8-1.5,11.1-4.6L458.7,78.7
		C464.9,72.6,464.9,62.6,458.8,56.4L458.8,56.4z"/>
	<path class="st7" d="M506.1,72.8l-42.3-18.4c-0.8-0.4-1.6-0.8-2.3-1.4L359.4,155.1c0.9,0.7,2,1.2,3.1,1.5l56.7,15.2
		c3.4,0.9,7-0.1,9.5-2.5l80.4-80.4C514,83.9,512.4,75.6,506.1,72.8z"/>
</g>
<g>
	<path d="M595.6,501c-1.4,0-2.6-1.2-2.6-2.6V11.8c0-1.4,1.2-2.6,2.6-2.6s2.6,1.2,2.6,2.6v486.6C598.2,499.8,597,501,595.6,501z"/>
	<path d="M595.6,10.7c0.6,0,1.1,0.5,1.1,1.1v486.6c0,0.6-0.5,1.1-1.1,1.1s-1.1-0.5-1.1-1.1V11.8C594.5,11.2,595,10.7,595.6,10.7
		 M595.6,7.7c-2.3,0-4.1,1.8-4.1,4.1v486.6c0,2.3,1.8,4.1,4.1,4.1s4.1-1.8,4.1-4.1V11.8C599.7,9.6,597.9,7.7,595.6,7.7L595.6,7.7z"
		/>
</g>
<g>
	<g class="st8">
		<g>
			
				<linearGradient id="SVGID_1_" gradientUnits="userSpaceOnUse" x1="676.043" y1="399.4" x2="1400.5049" y2="399.4" gradientTransform="matrix(1 0 0 -1 0 512)">
				<stop  offset="0" style="stop-color:#FE9201"/>
				<stop  offset="1" style="stop-color:#FD0144"/>
			</linearGradient>
			<path class="st9" d="M821.2,47l2.1-11.7h7.5c-0.1,1.2-0.2,3-0.2,5.3c-0.5,12-0.7,20.6-0.7,25.6c0,3,0.1,8.6,0.2,16.9
				c0.1,3.5,0.2,6.2,0.2,8.1h-7.8c-1.4-17.5-6.5-31.1-15.3-40.8s-20.5-14.6-35-14.6c-17.6,0-30.8,6.3-39.8,18.9s-13.4,31.2-13.4,56
				s4.8,43.6,14.4,56.6c9.6,13,23.5,19.5,41.7,19.5c12.6,0,23.1-3.3,31.6-9.8s14.3-15.8,17.3-27.9h8.7c-2.4,15.8-9.3,28.1-20.7,36.7
				c-11.4,8.6-26.1,12.9-44.3,12.9c-24.7,0-44.5-7.7-59.5-23.2s-22.5-36-22.5-61.5c0-26,7.6-47.1,22.9-63.2
				c15.3-16.2,35.2-24.3,59.7-24.3c10.4,0,20.1,1.8,29.3,5.4C806.9,35.4,814.7,40.4,821.2,47z"/>
			
				<linearGradient id="SVGID_2_" gradientUnits="userSpaceOnUse" x1="676.043" y1="402.55" x2="1400.5049" y2="402.55" gradientTransform="matrix(1 0 0 -1 0 512)">
				<stop  offset="0" style="stop-color:#FE9201"/>
				<stop  offset="1" style="stop-color:#FD0144"/>
			</linearGradient>
			<path class="st10" d="M866.7,46.1c0-5.5-0.9-9-2.7-10.6s-7.4-2.5-17-2.8l0.1-7.9c6.2-0.2,12.8-0.4,20-0.7
				c7.2-0.3,15.8-0.9,25.8-1.7v150.2c0,7.3,1,11.7,3,13.2s7,2.4,14.9,2.7v8c-9.1-0.5-16.1-0.8-20.7-0.9c-4.7-0.2-8.4-0.2-11.3-0.2
				c-2.2,0-5.4,0.1-9.5,0.2c-4.1,0.2-10.9,0.5-20.5,0.9v-7.9c8.2-0.8,13.2-1.9,15-3.4s2.7-5.7,2.7-12.6V46.1H866.7z"/>
			
				<linearGradient id="SVGID_3_" gradientUnits="userSpaceOnUse" x1="676.043" y1="371.75" x2="1400.5049" y2="371.75" gradientTransform="matrix(1 0 0 -1 0 512)">
				<stop  offset="0" style="stop-color:#FE9201"/>
				<stop  offset="1" style="stop-color:#FD0144"/>
			</linearGradient>
			<path class="st11" d="M951.3,136.7c0.1,16.1,3.2,28.4,9.4,36.8c6.2,8.4,15.1,12.6,26.9,12.6c8.3,0,15.5-2.1,21.5-6.2
				c6.1-4.1,10.6-10.1,13.8-17.9l6.6,2.1c-3.4,11.4-9.4,20.1-17.9,25.9c-8.5,5.8-19.5,8.7-32.9,8.7c-17.3,0-30.8-5.1-40.7-15.4
				c-9.8-10.2-14.7-24.4-14.7-42.6c0-17.7,5.1-31.9,15.4-42.7c10.2-10.8,23.7-16.2,40.5-16.2c15.6,0,27.9,4.6,36.9,13.9
				s13.5,22.1,13.5,38.3v1.7L951.3,136.7z M951.2,128.7l54.4-1.4c0-12.1-2.2-21.3-6.7-27.7c-4.5-6.4-10.9-9.5-19.4-9.5
				c-8.3,0-15,3.4-20.1,10.3C954.4,107.2,951.6,116.7,951.2,128.7z"/>
			
				<linearGradient id="SVGID_4_" gradientUnits="userSpaceOnUse" x1="676.043" y1="371.65" x2="1400.5049" y2="371.65" gradientTransform="matrix(1 0 0 -1 0 512)">
				<stop  offset="0" style="stop-color:#FE9201"/>
				<stop  offset="1" style="stop-color:#FD0144"/>
			</linearGradient>
			<path class="st12" d="M1115.4,179.8c-5.7,6.8-11.6,11.6-17.7,14.5s-13.5,4.3-22.2,4.3c-8.9,0-16-2.4-21.2-7.1
				c-5.2-4.7-7.8-11.2-7.8-19.3c0-9.1,3.1-16.1,9.4-21c6.2-5,20-9.6,41.1-14.1c2.1-0.5,4.6-1,7.7-1.5c6.6-1.2,9.9-3.2,9.9-5.8v-12.6
				c0-10.5-1.6-17.7-4.7-21.6c-3.1-3.9-8.5-5.8-16.1-5.8c-3.6,0-7,0.6-10.2,1.7s-6.2,2.7-8.9,4.9c0.4,2.5,0.6,4.6,0.8,6.4
				c0.2,1.8,0.2,3.4,0.2,4.9c0,4.3-1.2,8-3.6,10.9s-5.4,4.3-9,4.3c-3.4,0-6-1-8-3.1s-3-4.8-3-8.3c0-7.8,4.6-14.7,13.7-20.7
				s20.1-8.9,33-8.9c14.2,0,24.6,3.1,31.3,9.2c6.7,6.1,10,15.8,10,29v0.7l-0.2,41.5v5.1c0,7.2,0.7,11.8,2,13.8s3.7,3,7.1,3
				c2.1,0,3.9-0.5,5.6-1.5s3.2-2.6,4.7-4.7l4.9,3.3c-3.1,5.6-7.1,10-11.9,13s-10.2,4.5-15.9,4.5c-6.6,0-11.6-1.5-14.9-4.5
				C1118.2,191.2,1116.1,186.4,1115.4,179.8z M1114.6,141.1c-17.2,3.3-28.6,6.8-34.2,10.6s-8.3,9.2-8.3,16.3
				c0,5.6,1.5,10.2,4.5,13.6c3,3.4,7,5.1,11.8,5.1c4.5,0,9-1.5,13.5-4.5s8.7-7.2,12.4-12.7L1114.6,141.1z"/>
			
				<linearGradient id="SVGID_5_" gradientUnits="userSpaceOnUse" x1="676.043" y1="372.8" x2="1400.5049" y2="372.8" gradientTransform="matrix(1 0 0 -1 0 512)">
				<stop  offset="0" style="stop-color:#FE9201"/>
				<stop  offset="1" style="stop-color:#FD0144"/>
			</linearGradient>
			<path class="st13" d="M1187.7,107.2c0-5.9-1-9.7-3-11.2s-7.3-2.3-16-2.4v-8.2c7.5-0.2,14.9-0.6,22.2-1.2
				c7.3-0.6,14.5-1.4,21.6-2.3v30c3.7-9.6,8.2-17,13.7-22.2c5.4-5.2,11.3-7.8,17.7-7.8c6.2,0,11.2,1.8,14.9,5.3
				c3.7,3.5,5.5,8.2,5.5,13.9c0,4.3-1.1,7.7-3.3,10.2c-2.2,2.6-5.1,3.8-8.8,3.8c-4.1,0-7.3-1.1-9.4-3.4c-2.2-2.3-3.3-5.6-3.3-10.1
				c0-1.9,0.2-3.8,0.7-5.7c0.5-1.9,1.2-3.8,2.1-5.7h-0.2c-7.5,0-14,5.1-19.7,15.3c-5.6,10.2-8.5,22.4-8.5,36.7v30.4
				c0,6.8,1.3,11.1,3.8,12.9c2.6,1.8,9.8,2.8,21.7,3.1v7.9c-9.4-0.4-17.1-0.7-23.3-0.9c-6.1-0.2-11.4-0.3-15.8-0.3
				c-2.1,0-5.1,0.1-9.1,0.2c-4,0.2-11.4,0.5-22.2,0.9v-7.9c8.8-0.8,14.2-1.9,16-3.4s2.7-5.7,2.7-12.6L1187.7,107.2L1187.7,107.2z"/>
		</g>
	</g>
</g>
<g>
	<g>
		<g>
			
				<linearGradient id="SVGID_6_" gradientUnits="userSpaceOnUse" x1="679.585" y1="399.4" x2="1393.9248" y2="399.4" gradientTransform="matrix(1 0 0 -1 0 512)">
				<stop  offset="0" style="stop-color:#FE9201"/>
				<stop  offset="1" style="stop-color:#FD0144"/>
			</linearGradient>
			<path class="st14" d="M821.2,47l2.1-11.7h7.5c-0.1,1.2-0.2,3-0.2,5.3c-0.5,12-0.7,20.6-0.7,25.6c0,3,0.1,8.6,0.2,16.9
				c0.1,3.5,0.2,6.2,0.2,8.1h-7.8c-1.4-17.5-6.5-31.1-15.3-40.8s-20.5-14.6-35-14.6c-17.6,0-30.8,6.3-39.8,18.9s-13.4,31.2-13.4,56
				s4.8,43.6,14.4,56.6c9.6,13,23.5,19.5,41.7,19.5c12.6,0,23.1-3.3,31.6-9.8s14.3-15.8,17.3-27.9h8.7c-2.4,15.8-9.3,28.1-20.7,36.7
				c-11.4,8.6-26.1,12.9-44.3,12.9c-24.7,0-44.5-7.7-59.5-23.2s-22.5-36-22.5-61.5c0-26,7.6-47.1,22.9-63.2
				c15.3-16.2,35.2-24.3,59.7-24.3c10.4,0,20.1,1.8,29.3,5.4C806.9,35.4,814.7,40.4,821.2,47z"/>
			
				<linearGradient id="SVGID_7_" gradientUnits="userSpaceOnUse" x1="679.585" y1="402.55" x2="1393.9248" y2="402.55" gradientTransform="matrix(1 0 0 -1 0 512)">
				<stop  offset="0" style="stop-color:#FE9201"/>
				<stop  offset="1" style="stop-color:#FD0144"/>
			</linearGradient>
			<path class="st15" d="M866.7,46.1c0-5.5-0.9-9-2.7-10.6s-7.4-2.5-17-2.8l0.1-7.9c6.2-0.2,12.8-0.4,20-0.7
				c7.2-0.3,15.8-0.9,25.8-1.7v150.2c0,7.3,1,11.7,3,13.2s7,2.4,14.9,2.7v8c-9.1-0.5-16.1-0.8-20.7-0.9c-4.7-0.2-8.4-0.2-11.3-0.2
				c-2.2,0-5.4,0.1-9.5,0.2c-4.1,0.2-10.9,0.5-20.5,0.9v-7.9c8.2-0.8,13.2-1.9,15-3.4s2.7-5.7,2.7-12.6V46.1H866.7z"/>
			
				<linearGradient id="SVGID_8_" gradientUnits="userSpaceOnUse" x1="679.585" y1="371.75" x2="1393.9248" y2="371.75" gradientTransform="matrix(1 0 0 -1 0 512)">
				<stop  offset="0" style="stop-color:#FE9201"/>
				<stop  offset="1" style="stop-color:#FD0144"/>
			</linearGradient>
			<path class="st16" d="M951.3,136.7c0.1,16.1,3.2,28.4,9.4,36.8c6.2,8.4,15.1,12.6,26.9,12.6c8.3,0,15.5-2.1,21.5-6.2
				c6.1-4.1,10.6-10.1,13.8-17.9l6.6,2.1c-3.4,11.4-9.4,20.1-17.9,25.9c-8.5,5.8-19.5,8.7-32.9,8.7c-17.3,0-30.8-5.1-40.7-15.4
				c-9.8-10.2-14.7-24.4-14.7-42.6c0-17.7,5.1-31.9,15.4-42.7c10.2-10.8,23.7-16.2,40.5-16.2c15.6,0,27.9,4.6,36.9,13.9
				s13.5,22.1,13.5,38.3v1.7L951.3,136.7z M951.2,128.7l54.4-1.4c0-12.1-2.2-21.3-6.7-27.7c-4.5-6.4-10.9-9.5-19.4-9.5
				c-8.3,0-15,3.4-20.1,10.3C954.4,107.2,951.6,116.7,951.2,128.7z"/>
			
				<linearGradient id="SVGID_9_" gradientUnits="userSpaceOnUse" x1="679.585" y1="371.65" x2="1393.9248" y2="371.65" gradientTransform="matrix(1 0 0 -1 0 512)">
				<stop  offset="0" style="stop-color:#FE9201"/>
				<stop  offset="1" style="stop-color:#FD0144"/>
			</linearGradient>
			<path class="st17" d="M1115.4,179.8c-5.7,6.8-11.6,11.6-17.7,14.5s-13.5,4.3-22.2,4.3c-8.9,0-16-2.4-21.2-7.1
				c-5.2-4.7-7.8-11.2-7.8-19.3c0-9.1,3.1-16.1,9.4-21c6.2-5,20-9.6,41.1-14.1c2.1-0.5,4.6-1,7.7-1.5c6.6-1.2,9.9-3.2,9.9-5.8v-12.6
				c0-10.5-1.6-17.7-4.7-21.6c-3.1-3.9-8.5-5.8-16.1-5.8c-3.6,0-7,0.6-10.2,1.7s-6.2,2.7-8.9,4.9c0.4,2.5,0.6,4.6,0.8,6.4
				c0.2,1.8,0.2,3.4,0.2,4.9c0,4.3-1.2,8-3.6,10.9s-5.4,4.3-9,4.3c-3.4,0-6-1-8-3.1s-3-4.8-3-8.3c0-7.8,4.6-14.7,13.7-20.7
				s20.1-8.9,33-8.9c14.2,0,24.6,3.1,31.3,9.2c6.7,6.1,10,15.8,10,29v0.7l-0.2,41.5v5.1c0,7.2,0.7,11.8,2,13.8s3.7,3,7.1,3
				c2.1,0,3.9-0.5,5.6-1.5s3.2-2.6,4.7-4.7l4.9,3.3c-3.1,5.6-7.1,10-11.9,13s-10.2,4.5-15.9,4.5c-6.6,0-11.6-1.5-14.9-4.5
				C1118.2,191.2,1116.1,186.4,1115.4,179.8z M1114.6,141.1c-17.2,3.3-28.6,6.8-34.2,10.6s-8.3,9.2-8.3,16.3
				c0,5.6,1.5,10.2,4.5,13.6c3,3.4,7,5.1,11.8,5.1c4.5,0,9-1.5,13.5-4.5s8.7-7.2,12.4-12.7L1114.6,141.1z"/>
			
				<linearGradient id="SVGID_10_" gradientUnits="userSpaceOnUse" x1="679.585" y1="372.8" x2="1393.9248" y2="372.8" gradientTransform="matrix(1 0 0 -1 0 512)">
				<stop  offset="0" style="stop-color:#FE9201"/>
				<stop  offset="1" style="stop-color:#FD0144"/>
			</linearGradient>
			<path class="st18" d="M1187.7,107.2c0-5.9-1-9.7-3-11.2s-7.3-2.3-16-2.4v-8.2c7.5-0.2,14.9-0.6,22.2-1.2
				c7.3-0.6,14.5-1.4,21.6-2.3v30c3.7-9.6,8.2-17,13.7-22.2c5.4-5.2,11.3-7.8,17.7-7.8c6.2,0,11.2,1.8,14.9,5.3
				c3.7,3.5,5.5,8.2,5.5,13.9c0,4.3-1.1,7.7-3.3,10.2c-2.2,2.6-5.1,3.8-8.8,3.8c-4.1,0-7.3-1.1-9.4-3.4c-2.2-2.3-3.3-5.6-3.3-10.1
				c0-1.9,0.2-3.8,0.7-5.7c0.5-1.9,1.2-3.8,2.1-5.7h-0.2c-7.5,0-14,5.1-19.7,15.3c-5.6,10.2-8.5,22.4-8.5,36.7v30.4
				c0,6.8,1.3,11.1,3.8,12.9c2.6,1.8,9.8,2.8,21.7,3.1v7.9c-9.4-0.4-17.1-0.7-23.3-0.9c-6.1-0.2-11.4-0.3-15.8-0.3
				c-2.1,0-5.1,0.1-9.1,0.2c-4,0.2-11.4,0.5-22.2,0.9v-7.9c8.8-0.8,14.2-1.9,16-3.4s2.7-5.7,2.7-12.6L1187.7,107.2L1187.7,107.2z"/>
		</g>
		<g>
			
				<linearGradient id="SVGID_11_" gradientUnits="userSpaceOnUse" x1="679.585" y1="399.4" x2="1393.9248" y2="399.4" gradientTransform="matrix(1 0 0 -1 0 512)">
				<stop  offset="0" style="stop-color:#FE9201"/>
				<stop  offset="1" style="stop-color:#FD0144"/>
			</linearGradient>
			<path class="st19" d="M821.2,47l2.1-11.7h7.5c-0.1,1.2-0.2,3-0.2,5.3c-0.5,12-0.7,20.6-0.7,25.6c0,3,0.1,8.6,0.2,16.9
				c0.1,3.5,0.2,6.2,0.2,8.1h-7.8c-1.4-17.5-6.5-31.1-15.3-40.8s-20.5-14.6-35-14.6c-17.6,0-30.8,6.3-39.8,18.9s-13.4,31.2-13.4,56
				s4.8,43.6,14.4,56.6c9.6,13,23.5,19.5,41.7,19.5c12.6,0,23.1-3.3,31.6-9.8s14.3-15.8,17.3-27.9h8.7c-2.4,15.8-9.3,28.1-20.7,36.7
				c-11.4,8.6-26.1,12.9-44.3,12.9c-24.7,0-44.5-7.7-59.5-23.2s-22.5-36-22.5-61.5c0-26,7.6-47.1,22.9-63.2
				c15.3-16.2,35.2-24.3,59.7-24.3c10.4,0,20.1,1.8,29.3,5.4C806.9,35.4,814.7,40.4,821.2,47z"/>
			
				<linearGradient id="SVGID_12_" gradientUnits="userSpaceOnUse" x1="679.585" y1="402.55" x2="1393.9248" y2="402.55" gradientTransform="matrix(1 0 0 -1 0 512)">
				<stop  offset="0" style="stop-color:#FE9201"/>
				<stop  offset="1" style="stop-color:#FD0144"/>
			</linearGradient>
			<path class="st20" d="M866.7,46.1c0-5.5-0.9-9-2.7-10.6s-7.4-2.5-17-2.8l0.1-7.9c6.2-0.2,12.8-0.4,20-0.7
				c7.2-0.3,15.8-0.9,25.8-1.7v150.2c0,7.3,1,11.7,3,13.2s7,2.4,14.9,2.7v8c-9.1-0.5-16.1-0.8-20.7-0.9c-4.7-0.2-8.4-0.2-11.3-0.2
				c-2.2,0-5.4,0.1-9.5,0.2c-4.1,0.2-10.9,0.5-20.5,0.9v-7.9c8.2-0.8,13.2-1.9,15-3.4s2.7-5.7,2.7-12.6V46.1H866.7z"/>
			
				<linearGradient id="SVGID_13_" gradientUnits="userSpaceOnUse" x1="679.585" y1="371.75" x2="1393.9248" y2="371.75" gradientTransform="matrix(1 0 0 -1 0 512)">
				<stop  offset="0" style="stop-color:#FE9201"/>
				<stop  offset="1" style="stop-color:#FD0144"/>
			</linearGradient>
			<path class="st21" d="M951.3,136.7c0.1,16.1,3.2,28.4,9.4,36.8c6.2,8.4,15.1,12.6,26.9,12.6c8.3,0,15.5-2.1,21.5-6.2
				c6.1-4.1,10.6-10.1,13.8-17.9l6.6,2.1c-3.4,11.4-9.4,20.1-17.9,25.9c-8.5,5.8-19.5,8.7-32.9,8.7c-17.3,0-30.8-5.1-40.7-15.4
				c-9.8-10.2-14.7-24.4-14.7-42.6c0-17.7,5.1-31.9,15.4-42.7c10.2-10.8,23.7-16.2,40.5-16.2c15.6,0,27.9,4.6,36.9,13.9
				s13.5,22.1,13.5,38.3v1.7L951.3,136.7z M951.2,128.7l54.4-1.4c0-12.1-2.2-21.3-6.7-27.7c-4.5-6.4-10.9-9.5-19.4-9.5
				c-8.3,0-15,3.4-20.1,10.3C954.4,107.2,951.6,116.7,951.2,128.7z"/>
			
				<linearGradient id="SVGID_14_" gradientUnits="userSpaceOnUse" x1="679.585" y1="371.65" x2="1393.9248" y2="371.65" gradientTransform="matrix(1 0 0 -1 0 512)">
				<stop  offset="0" style="stop-color:#FE9201"/>
				<stop  offset="1" style="stop-color:#FD0144"/>
			</linearGradient>
			<path class="st22" d="M1115.4,179.8c-5.7,6.8-11.6,11.6-17.7,14.5s-13.5,4.3-22.2,4.3c-8.9,0-16-2.4-21.2-7.1
				c-5.2-4.7-7.8-11.2-7.8-19.3c0-9.1,3.1-16.1,9.4-21c6.2-5,20-9.6,41.1-14.1c2.1-0.5,4.6-1,7.7-1.5c6.6-1.2,9.9-3.2,9.9-5.8v-12.6
				c0-10.5-1.6-17.7-4.7-21.6c-3.1-3.9-8.5-5.8-16.1-5.8c-3.6,0-7,0.6-10.2,1.7s-6.2,2.7-8.9,4.9c0.4,2.5,0.6,4.6,0.8,6.4
				c0.2,1.8,0.2,3.4,0.2,4.9c0,4.3-1.2,8-3.6,10.9s-5.4,4.3-9,4.3c-3.4,0-6-1-8-3.1s-3-4.8-3-8.3c0-7.8,4.6-14.7,13.7-20.7
				s20.1-8.9,33-8.9c14.2,0,24.6,3.1,31.3,9.2c6.7,6.1,10,15.8,10,29v0.7l-0.2,41.5v5.1c0,7.2,0.7,11.8,2,13.8s3.7,3,7.1,3
				c2.1,0,3.9-0.5,5.6-1.5s3.2-2.6,4.7-4.7l4.9,3.3c-3.1,5.6-7.1,10-11.9,13s-10.2,4.5-15.9,4.5c-6.6,0-11.6-1.5-14.9-4.5
				C1118.2,191.2,1116.1,186.4,1115.4,179.8z M1114.6,141.1c-17.2,3.3-28.6,6.8-34.2,10.6s-8.3,9.2-8.3,16.3
				c0,5.6,1.5,10.2,4.5,13.6c3,3.4,7,5.1,11.8,5.1c4.5,0,9-1.5,13.5-4.5s8.7-7.2,12.4-12.7L1114.6,141.1z"/>
			
				<linearGradient id="SVGID_15_" gradientUnits="userSpaceOnUse" x1="679.585" y1="372.8" x2="1393.9248" y2="372.8" gradientTransform="matrix(1 0 0 -1 0 512)">
				<stop  offset="0" style="stop-color:#FE9201"/>
				<stop  offset="1" style="stop-color:#FD0144"/>
			</linearGradient>
			<path class="st23" d="M1187.7,107.2c0-5.9-1-9.7-3-11.2s-7.3-2.3-16-2.4v-8.2c7.5-0.2,14.9-0.6,22.2-1.2
				c7.3-0.6,14.5-1.4,21.6-2.3v30c3.7-9.6,8.2-17,13.7-22.2c5.4-5.2,11.3-7.8,17.7-7.8c6.2,0,11.2,1.8,14.9,5.3
				c3.7,3.5,5.5,8.2,5.5,13.9c0,4.3-1.1,7.7-3.3,10.2c-2.2,2.6-5.1,3.8-8.8,3.8c-4.1,0-7.3-1.1-9.4-3.4c-2.2-2.3-3.3-5.6-3.3-10.1
				c0-1.9,0.2-3.8,0.7-5.7c0.5-1.9,1.2-3.8,2.1-5.7h-0.2c-7.5,0-14,5.1-19.7,15.3c-5.6,10.2-8.5,22.4-8.5,36.7v30.4
				c0,6.8,1.3,11.1,3.8,12.9c2.6,1.8,9.8,2.8,21.7,3.1v7.9c-9.4-0.4-17.1-0.7-23.3-0.9c-6.1-0.2-11.4-0.3-15.8-0.3
				c-2.1,0-5.1,0.1-9.1,0.2c-4,0.2-11.4,0.5-22.2,0.9v-7.9c8.8-0.8,14.2-1.9,16-3.4s2.7-5.7,2.7-12.6L1187.7,107.2L1187.7,107.2z"/>
		</g>
		<g>
			
				<linearGradient id="SVGID_16_" gradientUnits="userSpaceOnUse" x1="679.585" y1="399.4" x2="1393.9248" y2="399.4" gradientTransform="matrix(1 0 0 -1 0 512)">
				<stop  offset="0" style="stop-color:#FE9201"/>
				<stop  offset="1" style="stop-color:#FD0144"/>
			</linearGradient>
			<path class="st24" d="M821.2,47l2.1-11.7h7.5c-0.1,1.2-0.2,3-0.2,5.3c-0.5,12-0.7,20.6-0.7,25.6c0,3,0.1,8.6,0.2,16.9
				c0.1,3.5,0.2,6.2,0.2,8.1h-7.8c-1.4-17.5-6.5-31.1-15.3-40.8s-20.5-14.6-35-14.6c-17.6,0-30.8,6.3-39.8,18.9s-13.4,31.2-13.4,56
				s4.8,43.6,14.4,56.6c9.6,13,23.5,19.5,41.7,19.5c12.6,0,23.1-3.3,31.6-9.8s14.3-15.8,17.3-27.9h8.7c-2.4,15.8-9.3,28.1-20.7,36.7
				c-11.4,8.6-26.1,12.9-44.3,12.9c-24.7,0-44.5-7.7-59.5-23.2s-22.5-36-22.5-61.5c0-26,7.6-47.1,22.9-63.2
				c15.3-16.2,35.2-24.3,59.7-24.3c10.4,0,20.1,1.8,29.3,5.4C806.9,35.4,814.7,40.4,821.2,47z"/>
			
				<linearGradient id="SVGID_17_" gradientUnits="userSpaceOnUse" x1="679.585" y1="402.55" x2="1393.9248" y2="402.55" gradientTransform="matrix(1 0 0 -1 0 512)">
				<stop  offset="0" style="stop-color:#FE9201"/>
				<stop  offset="1" style="stop-color:#FD0144"/>
			</linearGradient>
			<path class="st25" d="M866.7,46.1c0-5.5-0.9-9-2.7-10.6s-7.4-2.5-17-2.8l0.1-7.9c6.2-0.2,12.8-0.4,20-0.7
				c7.2-0.3,15.8-0.9,25.8-1.7v150.2c0,7.3,1,11.7,3,13.2s7,2.4,14.9,2.7v8c-9.1-0.5-16.1-0.8-20.7-0.9c-4.7-0.2-8.4-0.2-11.3-0.2
				c-2.2,0-5.4,0.1-9.5,0.2c-4.1,0.2-10.9,0.5-20.5,0.9v-7.9c8.2-0.8,13.2-1.9,15-3.4s2.7-5.7,2.7-12.6V46.1H866.7z"/>
			
				<linearGradient id="SVGID_18_" gradientUnits="userSpaceOnUse" x1="679.585" y1="371.75" x2="1393.9248" y2="371.75" gradientTransform="matrix(1 0 0 -1 0 512)">
				<stop  offset="0" style="stop-color:#FE9201"/>
				<stop  offset="1" style="stop-color:#FD0144"/>
			</linearGradient>
			<path class="st26" d="M951.3,136.7c0.1,16.1,3.2,28.4,9.4,36.8c6.2,8.4,15.1,12.6,26.9,12.6c8.3,0,15.5-2.1,21.5-6.2
				c6.1-4.1,10.6-10.1,13.8-17.9l6.6,2.1c-3.4,11.4-9.4,20.1-17.9,25.9c-8.5,5.8-19.5,8.7-32.9,8.7c-17.3,0-30.8-5.1-40.7-15.4
				c-9.8-10.2-14.7-24.4-14.7-42.6c0-17.7,5.1-31.9,15.4-42.7c10.2-10.8,23.7-16.2,40.5-16.2c15.6,0,27.9,4.6,36.9,13.9
				s13.5,22.1,13.5,38.3v1.7L951.3,136.7z M951.2,128.7l54.4-1.4c0-12.1-2.2-21.3-6.7-27.7c-4.5-6.4-10.9-9.5-19.4-9.5
				c-8.3,0-15,3.4-20.1,10.3C954.4,107.2,951.6,116.7,951.2,128.7z"/>
			
				<linearGradient id="SVGID_19_" gradientUnits="userSpaceOnUse" x1="679.585" y1="371.65" x2="1393.9248" y2="371.65" gradientTransform="matrix(1 0 0 -1 0 512)">
				<stop  offset="0" style="stop-color:#FE9201"/>
				<stop  offset="1" style="stop-color:#FD0144"/>
			</linearGradient>
			<path class="st27" d="M1115.4,179.8c-5.7,6.8-11.6,11.6-17.7,14.5s-13.5,4.3-22.2,4.3c-8.9,0-16-2.4-21.2-7.1
				c-5.2-4.7-7.8-11.2-7.8-19.3c0-9.1,3.1-16.1,9.4-21c6.2-5,20-9.6,41.1-14.1c2.1-0.5,4.6-1,7.7-1.5c6.6-1.2,9.9-3.2,9.9-5.8v-12.6
				c0-10.5-1.6-17.7-4.7-21.6c-3.1-3.9-8.5-5.8-16.1-5.8c-3.6,0-7,0.6-10.2,1.7s-6.2,2.7-8.9,4.9c0.4,2.5,0.6,4.6,0.8,6.4
				c0.2,1.8,0.2,3.4,0.2,4.9c0,4.3-1.2,8-3.6,10.9s-5.4,4.3-9,4.3c-3.4,0-6-1-8-3.1s-3-4.8-3-8.3c0-7.8,4.6-14.7,13.7-20.7
				s20.1-8.9,33-8.9c14.2,0,24.6,3.1,31.3,9.2c6.7,6.1,10,15.8,10,29v0.7l-0.2,41.5v5.1c0,7.2,0.7,11.8,2,13.8s3.7,3,7.1,3
				c2.1,0,3.9-0.5,5.6-1.5s3.2-2.6,4.7-4.7l4.9,3.3c-3.1,5.6-7.1,10-11.9,13s-10.2,4.5-15.9,4.5c-6.6,0-11.6-1.5-14.9-4.5
				C1118.2,191.2,1116.1,186.4,1115.4,179.8z M1114.6,141.1c-17.2,3.3-28.6,6.8-34.2,10.6s-8.3,9.2-8.3,16.3
				c0,5.6,1.5,10.2,4.5,13.6c3,3.4,7,5.1,11.8,5.1c4.5,0,9-1.5,13.5-4.5s8.7-7.2,12.4-12.7L1114.6,141.1z"/>
			
				<linearGradient id="SVGID_20_" gradientUnits="userSpaceOnUse" x1="679.585" y1="372.8" x2="1393.9248" y2="372.8" gradientTransform="matrix(1 0 0 -1 0 512)">
				<stop  offset="0" style="stop-color:#FE9201"/>
				<stop  offset="1" style="stop-color:#FD0144"/>
			</linearGradient>
			<path class="st28" d="M1187.7,107.2c0-5.9-1-9.7-3-11.2s-7.3-2.3-16-2.4v-8.2c7.5-0.2,14.9-0.6,22.2-1.2
				c7.3-0.6,14.5-1.4,21.6-2.3v30c3.7-9.6,8.2-17,13.7-22.2c5.4-5.2,11.3-7.8,17.7-7.8c6.2,0,11.2,1.8,14.9,5.3
				c3.7,3.5,5.5,8.2,5.5,13.9c0,4.3-1.1,7.7-3.3,10.2c-2.2,2.6-5.1,3.8-8.8,3.8c-4.1,0-7.3-1.1-9.4-3.4c-2.2-2.3-3.3-5.6-3.3-10.1
				c0-1.9,0.2-3.8,0.7-5.7c0.5-1.9,1.2-3.8,2.1-5.7h-0.2c-7.5,0-14,5.1-19.7,15.3c-5.6,10.2-8.5,22.4-8.5,36.7v30.4
				c0,6.8,1.3,11.1,3.8,12.9c2.6,1.8,9.8,2.8,21.7,3.1v7.9c-9.4-0.4-17.1-0.7-23.3-0.9c-6.1-0.2-11.4-0.3-15.8-0.3
				c-2.1,0-5.1,0.1-9.1,0.2c-4,0.2-11.4,0.5-22.2,0.9v-7.9c8.8-0.8,14.2-1.9,16-3.4s2.7-5.7,2.7-12.6L1187.7,107.2L1187.7,107.2z"/>
		</g>
	</g>
	<g>
		
			<linearGradient id="SVGID_21_" gradientUnits="userSpaceOnUse" x1="679.585" y1="139.65" x2="1393.9248" y2="139.65" gradientTransform="matrix(1 0 0 -1 0 512)">
			<stop  offset="0" style="stop-color:#FE9201"/>
			<stop  offset="1" style="stop-color:#FD0144"/>
		</linearGradient>
		<path class="st29" d="M684.3,288.4h146.9l4.7,44.4h-7.5c-1.9-13.6-5.4-22.9-10.4-27.8s-13.7-7.4-26.1-7.4h-19.2v129.9
			c0,8.8,1.1,14.3,3.4,16.5c2.2,2.1,7.7,3.2,16.3,3.2h2.5v9.1c-6.9-0.4-13.4-0.7-19.5-0.9c-6.2-0.2-11.7-0.3-16.7-0.3
			c-3.4,0-7.8,0.1-13.2,0.2c-5.4,0.2-13.6,0.5-24.7,0.9v-9.1h2.6c8.5,0,13.8-1.1,16.1-3.2c2.2-2.1,3.4-7.6,3.4-16.5V297.7h-19.2
			c-12.4,0-21.2,2.5-26.2,7.4c-5.1,5-8.5,14.2-10.3,27.8h-7.4L684.3,288.4z"/>
		
			<linearGradient id="SVGID_22_" gradientUnits="userSpaceOnUse" x1="679.585" y1="111.85" x2="1393.9248" y2="111.85" gradientTransform="matrix(1 0 0 -1 0 512)">
			<stop  offset="0" style="stop-color:#FE9201"/>
			<stop  offset="1" style="stop-color:#FD0144"/>
		</linearGradient>
		<path class="st30" d="M915.5,439.6c-5.7,6.8-11.6,11.6-17.7,14.5s-13.5,4.3-22.2,4.3c-8.9,0-16-2.4-21.2-7.1s-7.8-11.2-7.8-19.3
			c0-9.1,3.1-16.1,9.4-21c6.2-5,20-9.6,41.1-14.1c2.1-0.5,4.6-1,7.7-1.5c6.6-1.2,9.9-3.2,9.9-5.8V377c0-10.5-1.6-17.7-4.7-21.6
			c-3.1-3.9-8.5-5.8-16.1-5.8c-3.6,0-7,0.6-10.2,1.7s-6.2,2.7-8.9,4.9c0.4,2.5,0.6,4.6,0.8,6.4s0.2,3.4,0.2,4.9
			c0,4.3-1.2,8-3.6,10.9c-2.4,2.9-5.4,4.3-9,4.3c-3.4,0-6-1-8-3.1s-3-4.8-3-8.3c0-7.8,4.6-14.7,13.7-20.7s20.1-8.9,33-8.9
			c14.2,0,24.6,3.1,31.2,9.2c6.7,6.1,10,15.8,10,29v0.7l-0.2,41.5v5.1c0,7.2,0.7,11.8,2,13.8s3.7,3,7.1,3c2.1,0,3.9-0.5,5.6-1.5
			c1.7-1,3.2-2.6,4.7-4.7l4.9,3.3c-3.1,5.6-7.1,10-11.9,13c-4.8,3-10.2,4.5-15.9,4.5c-6.6,0-11.6-1.5-14.9-4.5
			S916.3,446.2,915.5,439.6z M914.7,400.9c-17.2,3.3-28.6,6.8-34.2,10.6c-5.6,3.8-8.3,9.2-8.3,16.3c0,5.6,1.5,10.2,4.5,13.6
			s7,5.1,11.8,5.1c4.5,0,9-1.5,13.5-4.5s8.7-7.2,12.4-12.7L914.7,400.9z"/>
		
			<linearGradient id="SVGID_23_" gradientUnits="userSpaceOnUse" x1="679.585" y1="113" x2="1393.9248" y2="113" gradientTransform="matrix(1 0 0 -1 0 512)">
			<stop  offset="0" style="stop-color:#FE9201"/>
			<stop  offset="1" style="stop-color:#FD0144"/>
		</linearGradient>
		<path class="st31" d="M987.9,367c0-5.9-1-9.7-3-11.2s-7.3-2.3-16-2.4v-8.2c7.5-0.2,14.9-0.6,22.2-1.2s14.5-1.4,21.6-2.3v30
			c3.7-9.6,8.2-17,13.7-22.2c5.4-5.2,11.3-7.8,17.7-7.8c6.2,0,11.2,1.8,14.9,5.3c3.7,3.5,5.5,8.2,5.5,13.9c0,4.3-1.1,7.7-3.3,10.2
			c-2.2,2.6-5.1,3.8-8.8,3.8c-4.1,0-7.3-1.1-9.4-3.4c-2.2-2.3-3.3-5.6-3.3-10.1c0-1.9,0.2-3.8,0.7-5.7c0.5-1.9,1.2-3.8,2.1-5.7h-0.2
			c-7.5,0-14,5.1-19.7,15.3c-5.6,10.2-8.5,22.4-8.5,36.7v30.4c0,6.8,1.3,11.1,3.8,12.9c2.6,1.8,9.8,2.8,21.7,3.1v7.9
			c-9.4-0.4-17.1-0.7-23.3-0.9c-6.1-0.2-11.4-0.3-15.8-0.3c-2.1,0-5.1,0.1-9.1,0.2c-4,0.2-11.4,0.5-22.2,0.9v-7.9
			c8.8-0.8,14.2-1.9,16-3.4s2.7-5.7,2.7-12.6L987.9,367L987.9,367z"/>
		
			<linearGradient id="SVGID_24_" gradientUnits="userSpaceOnUse" x1="679.585" y1="87.2" x2="1393.9248" y2="87.2" gradientTransform="matrix(1 0 0 -1 0 512)">
			<stop  offset="0" style="stop-color:#FE9201"/>
			<stop  offset="1" style="stop-color:#FD0144"/>
		</linearGradient>
		<path class="st32" d="M1155.6,352.5c4.2-5,7.9-8.3,11.1-10.1c3.2-1.8,7.1-2.6,11.7-2.6c3.9,0,6.6,0.6,8.2,1.7s2.3,3.1,2.3,5.9
			c0,2.6-0.7,4.6-2,5.9s-3.3,2-5.8,2c-2.2,0-4.6-0.6-7.2-1.7s-4.2-1.7-4.9-1.7c-1.4,0-2.8,0.5-4.3,1.5s-2.8,2.4-3.9,4.1
			c2.7,3.3,4.8,6.8,6.1,10.6c1.3,3.8,1.9,7.9,1.9,12.5c0,12.3-3.9,21.9-11.7,28.6c-7.8,6.7-18.8,10.1-33.1,10.1
			c-0.6,0-2.2,0-4.7-0.1s-4.7-0.1-6.5-0.1c-4.5,0-7.9,0.7-10.2,2.2c-2.3,1.5-3.4,3.7-3.4,6.7c0,7.5,11.9,11.7,35.6,12.6
			c2.9,0.2,5.1,0.3,6.5,0.3c16.3,0.6,28,3.2,35.1,7.7s10.7,11.5,10.7,20.9c0,11.7-5.8,21.3-17.5,28.9s-26.7,11.4-45.2,11.4
			c-14.7,0-26.6-2.6-35.6-7.7s-13.5-11.8-13.5-20c0-5.6,1.8-10.4,5.3-14.6s8.7-7.4,15.4-9.7c-4.6-1.9-8.1-4.5-10.4-7.9
			s-3.4-7.3-3.4-12c0-5.3,1.7-9.9,5.1-13.9s8.3-7,14.7-9.1c-7.6-2.2-13.5-6.2-17.8-11.8c-4.2-5.7-6.3-12.5-6.3-20.6
			c0-11.9,4.2-21.6,12.5-29c8.3-7.5,19.2-11.2,32.6-11.2c6.9,0,13,0.9,18.6,2.7C1147.1,346.5,1151.8,349.1,1155.6,352.5z M1102,462
			c-4.2,1.6-7.4,3.9-9.7,7c-2.3,3-3.4,6.5-3.4,10.4c0,6.9,3.2,12.3,9.6,16.2c6.4,3.8,15.4,5.8,27,5.8c12.4,0,22.5-2.2,30.2-6.5
			s11.6-9.8,11.6-16.4c0-8.2-11.3-12.8-33.9-14.1C1120.5,463.7,1110.1,462.9,1102,462z M1123.2,349.9c-7.2,0-12.6,2.5-16.2,7.5
			c-3.5,5-5.3,12.5-5.3,22.7c0,10.4,1.8,18.2,5.3,23.2s8.9,7.5,16.2,7.5s12.8-2.5,16.4-7.6s5.4-12.7,5.4-22.9
			c0-10.1-1.8-17.7-5.4-22.8C1136,352.4,1130.6,349.9,1123.2,349.9z"/>
		
			<linearGradient id="SVGID_25_" gradientUnits="userSpaceOnUse" x1="679.585" y1="111.95" x2="1393.9248" y2="111.95" gradientTransform="matrix(1 0 0 -1 0 512)">
			<stop  offset="0" style="stop-color:#FE9201"/>
			<stop  offset="1" style="stop-color:#FD0144"/>
		</linearGradient>
		<path class="st33" d="M1224.9,396.5c0.1,16.1,3.2,28.4,9.4,36.8c6.2,8.4,15.1,12.6,26.9,12.6c8.3,0,15.5-2.1,21.5-6.2
			c6.1-4.1,10.6-10.1,13.8-17.9l6.6,2.1c-3.4,11.4-9.4,20.1-17.9,25.9s-19.5,8.7-32.9,8.7c-17.3,0-30.8-5.1-40.7-15.4
			c-9.8-10.2-14.7-24.4-14.7-42.6c0-17.7,5.1-31.9,15.4-42.7c10.2-10.8,23.7-16.2,40.5-16.2c15.6,0,27.9,4.6,36.9,13.9
			s13.5,22.1,13.5,38.3v1.7L1224.9,396.5z M1224.8,388.5l54.4-1.4c0-12.1-2.2-21.3-6.7-27.7c-4.5-6.4-10.9-9.5-19.4-9.5
			c-8.3,0-15,3.4-20.1,10.3C1228,367,1225.3,376.5,1224.8,388.5z"/>
		
			<linearGradient id="SVGID_26_" gradientUnits="userSpaceOnUse" x1="679.585" y1="126.4" x2="1393.9248" y2="126.4" gradientTransform="matrix(1 0 0 -1 0 512)">
			<stop  offset="0" style="stop-color:#FE9201"/>
			<stop  offset="1" style="stop-color:#FD0144"/>
		</linearGradient>
		<path class="st34" d="M1352.4,312.7h8.5L1360,348h28.6v8.1h-28.8l-1.7,64v3.9c0,7.8,1.1,13.3,3.2,16.3s5.7,4.6,10.6,4.6
			c3.7,0,6.7-1,9.3-2.9c2.5-1.9,4.7-5,6.6-9.1l6.2,2.9c-2.1,7-6.1,12.5-11.8,16.6s-12.5,6.1-20.3,6.1c-10.7,0-18.4-2.6-23-7.7
			s-6.9-13.9-6.9-26.2v-3.4l1.6-64.9h-12.3v-6.5c8.8-3.4,15.8-8.1,20.9-14.2C1347.2,329.5,1350.6,321.9,1352.4,312.7z"/>
	</g>
</g>
</svg>
