<?xml version="1.0" encoding="utf-8"?>
<!-- Generator: Adobe Illustrator 23.0.0, SVG Export Plug-In . SVG Version: 6.00 Build 0)  -->
<svg version="1.1" id="Layer_1" xmlns="http://www.w3.org/2000/svg" xmlns:xlink="http://www.w3.org/1999/xlink" x="0px" y="0px"
	 viewBox="0 0 512 512" style="enable-background:new 0 0 512 512;" xml:space="preserve">
<style type="text/css">
	.st0{fill:#FF405C;}
	.st1{fill:#C1126B;}
	.st2{fill:#FFF4F4;}
	.st3{fill:#EEE1DC;}
	.st4{fill:#00337A;}
	.st5{fill:#00AEEE;}
	.st6{fill:#002659;}
	.st7{fill:#0089FF;}
	.st8{fill:#EF9614;}
	.st9{font-family:'Elephant-Regular';}
	.st10{font-size:121.1789px;}
</style>
<g>
	<path class="st0" d="M475.4,124.1c21,39.8,36.6,83.6,36.6,131.9c0,141.4-114.6,256-256,256S0,397.4,0,256S114.6,0,256,0
		c49.1,0,97,15,136,39C392,39,452.4,80.5,475.4,124.1L475.4,124.1z"/>
	<path class="st1" d="M512,256c0-48.2-15.6-92.1-36.6-131.9C452.4,80.5,392,39,392,39C353,15,305.1,0,256,0v512
		C397.4,512,512,397.4,512,256z"/>
	<path class="st2" d="M404.7,182.2c10.9,23.3,17.3,46.3,17.3,73.8c0,91.6-74.3,165.9-165.9,165.9S90.1,347.6,90.1,256
		S164.4,90.1,256,90.1c28.9,0,53.9,6.2,77.6,19.2C333.6,109.3,384,138.1,404.7,182.2L404.7,182.2z"/>
	<path class="st3" d="M421.9,256c0-27.5-6.3-50.5-17.3-73.8c-20.7-44.1-71.1-72.9-71.1-72.9c-23.7-13-48.6-19.2-77.6-19.2v331.8
		C347.6,421.9,421.9,347.6,421.9,256z"/>
	<circle class="st0" cx="256" cy="256" r="78.1"/>
	<path class="st1" d="M334.1,256c0-43.1-35-78.1-78.1-78.1v156.2C299.1,334.1,334.1,299.1,334.1,256L334.1,256z"/>
	<g>
		<path class="st4" d="M252.8,276.8c-4.1,0-8.1-1.6-11.2-4.7c-6.1-6.2-6.1-16.2,0.1-22.3L436.5,56.3c6.2-6.1,16.2-6.1,22.3,0.1
			c6.1,6.2,6.1,16.2-0.1,22.3L264,272.2C260.9,275.3,256.9,276.8,252.8,276.8L252.8,276.8z"/>
	</g>
	<path class="st5" d="M458.4,48.6L444,7.1c-2.4-6.9-11.1-8.9-16.3-3.7l-81.6,81.6c-2.4,2.4-3.4,5.8-2.7,9l12,55.1
		c0.8,3.6,3.5,6.5,7.1,7.4l56.7,15.2c3.4,0.9,7-0.1,9.5-2.5l80.4-80.4c4.9-4.9,3.3-13.2-3-16l-42.3-18.4
		C461.2,53.3,459.3,51.2,458.4,48.6L458.4,48.6z"/>
	<path class="st6" d="M458.8,56.4c-0.1-0.1-0.3-0.2-0.4-0.3L242,272.5c3,2.9,6.9,4.3,10.8,4.3c4,0,8-1.5,11.1-4.6L458.7,78.7
		C464.9,72.6,464.9,62.6,458.8,56.4L458.8,56.4z"/>
	<path class="st7" d="M506.1,72.8l-42.3-18.4c-0.8-0.4-1.6-0.8-2.3-1.4L359.4,155.1c0.9,0.7,2,1.2,3.1,1.5l56.7,15.2
		c3.4,0.9,7-0.1,9.5-2.5l80.4-80.4C514,83.9,512.4,75.6,506.1,72.8z"/>
</g>
<text transform="matrix(1 6.770793e-03 -6.770793e-03 1 142.2014 321.0886)"><tspan x="0" y="0" class="st8 st9 st10">My </tspan><tspan x="-92.6" y="145.4" class="st8 st9 st10">Target</tspan></text>
</svg>
