<?xml version="1.0" encoding="utf-8"?>
<!-- Generator: Adobe Illustrator 23.0.0, SVG Export Plug-In . SVG Version: 6.00 Build 0)  -->
<svg version="1.1" id="Capa_1" xmlns="http://www.w3.org/2000/svg" xmlns:xlink="http://www.w3.org/1999/xlink" x="0px" y="0px"
	 viewBox="0 0 512 512" style="enable-background:new 0 0 512 512;" xml:space="preserve">
<g>
	<path fill="#fff" d="M484.1,37.1l-474,191.7c-5.7,2.3-9.4,7.8-9.4,13.9v7.6c0,6.6,4.3,12.4,10.6,14.3l122.7,37.9c4.7,1.5,8.4,5.2,9.9,9.9
		l38.9,124.8c2,6.3,7.8,10.5,14.3,10.5l18.2,0c4,0,7.9-1.6,10.7-4.5l43.8-44.8c5.2-5.3,13.6-6,19.6-1.6l103.9,76.3
		c4.1,3,9.5,3.7,14.2,1.9l8.3-3.2c4.8-1.8,8.3-5.9,9.3-10.9l85.6-401.4c1.2-5.4-0.8-11.1-5-14.6l-6.5-5.4
		C495.1,35.9,489.3,35,484.1,37.1z M380.4,426.3l-128.6-94.4c-6.7-4.9-16.1-3.5-21,3.2l0,0c-4.9,6.7-3.5,16.1,3.2,21l6.5,4.8
		c7.4,5.4,8.2,16.2,1.8,22.7l-16.5,16.6c-8,8-21.6,4.7-25-6.1l-25.5-81.7c-2.1-6.6,0.7-13.8,6.6-17.3l187.8-112.1
		c7.1-4.2,9.4-13.5,5.2-20.6v0c-4.2-7.1-13.5-9.4-20.6-5.2L159.1,273.6c-3.7,2.2-8.1,2.7-12.1,1.5l-56.8-17.5
		c-13.5-4.2-14.3-22.9-1.2-28.2L451.3,82.7c11.1-4.5,22.8,5.3,20.3,17l-67.7,317.6C401.6,428,389.1,432.7,380.4,426.3z"/>
</g>
</svg>
